<?xml version="1.0" encoding="UTF-8"?>
<svg xmlns="http://www.w3.org/2000/svg" xmlns:xlink="http://www.w3.org/1999/xlink" viewBox="0 0 24 24" width="24px" height="24px">
<g id="surface5898482">
<path style=" stroke:none;fill-rule:nonzero;fill:rgb(100%,100%,100%);fill-opacity:1;" d="M 12.140625 2 C 9.511719 2 6.59375 2.984375 5.980469 6.195312 C 5.914062 6.539062 6.152344 6.714844 6.378906 6.765625 L 9.046875 7.035156 C 9.300781 7.023438 9.5 6.789062 9.546875 6.542969 C 9.777344 5.433594 10.714844 4.886719 11.765625 4.886719 C 12.335938 4.886719 12.976562 5.101562 13.3125 5.605469 C 13.699219 6.164062 13.636719 6.929688 13.636719 7.578125 L 13.636719 7.949219 C 12.035156 8.128906 9.945312 8.234375 8.449219 8.886719 C 6.71875 9.628906 5.507812 11.136719 5.507812 13.355469 C 5.507812 16.195312 7.324219 17.625 9.648438 17.625 C 11.609375 17.625 12.671875 17.152344 14.183594 15.625 C 14.6875 16.34375 14.863281 16.699219 15.78125 17.453125 C 15.988281 17.5625 16.246094 17.539062 16.429688 17.378906 L 16.429688 17.402344 C 16.980469 16.917969 17.984375 16.046875 18.546875 15.578125 C 18.773438 15.394531 18.722656 15.109375 18.546875 14.859375 C 18.042969 14.171875 17.527344 13.597656 17.527344 12.316406 L 17.527344 8.070312 C 17.527344 6.269531 17.648438 4.597656 16.304688 3.355469 C 15.242188 2.351562 13.480469 2 12.140625 2 Z M 12.886719 10.144531 C 13.136719 10.128906 13.386719 10.144531 13.636719 10.144531 L 13.636719 10.738281 C 13.636719 11.804688 13.679688 12.679688 13.136719 13.625 C 12.699219 14.394531 11.992188 14.859375 11.21875 14.859375 C 10.15625 14.859375 9.546875 14.066406 9.546875 12.886719 C 9.546875 10.851562 11.144531 10.257812 12.886719 10.144531 Z M 20.515625 16.515625 C 19.816406 16.523438 19 16.671875 18.371094 17.105469 C 18.179688 17.242188 18.210938 17.429688 18.421875 17.402344 C 19.128906 17.320312 20.6875 17.121094 20.964844 17.476562 C 21.246094 17.832031 20.65625 19.292969 20.394531 19.945312 C 20.3125 20.140625 20.488281 20.21875 20.667969 20.066406 C 21.839844 19.097656 22.152344 17.078125 21.914062 16.785156 C 21.796875 16.640625 21.21875 16.503906 20.515625 16.515625 Z M 2.140625 16.886719 C 1.996094 16.902344 1.9375 17.09375 2.089844 17.230469 C 4.699219 19.5625 8.136719 20.957031 11.964844 20.957031 C 14.695312 20.957031 17.882812 20.113281 20.070312 18.515625 C 20.429688 18.25 20.113281 17.839844 19.746094 17.996094 C 17.292969 19.027344 14.613281 19.527344 12.191406 19.527344 C 8.597656 19.527344 5.128906 18.554688 2.316406 16.933594 C 2.253906 16.898438 2.1875 16.878906 2.140625 16.886719 Z M 2.140625 16.886719 "/>
</g>
</svg>
