<?xml version="1.0" encoding="UTF-8"?>
<svg xmlns="http://www.w3.org/2000/svg" xmlns:xlink="http://www.w3.org/1999/xlink" viewBox="0 0 24 24" width="24px" height="24px">
<g id="surface5872276">
<path style=" stroke:none;fill-rule:nonzero;fill:rgb(100%,100%,100%);fill-opacity:1;" d="M 4.320312 1.921875 C 3 1.921875 1.921875 3 1.921875 4.320312 L 1.921875 19.679688 C 1.921875 21 3 22.078125 4.320312 22.078125 L 19.679688 22.078125 C 21 22.078125 22.078125 21 22.078125 19.679688 L 22.078125 4.320312 C 22.078125 3 21 1.921875 19.679688 1.921875 Z M 4.320312 2.878906 L 19.679688 2.878906 C 20.480469 2.878906 21.121094 3.519531 21.121094 4.320312 L 21.121094 19.679688 C 21.121094 20.480469 20.480469 21.121094 19.679688 21.121094 L 4.320312 21.121094 C 3.519531 21.121094 2.878906 20.480469 2.878906 19.679688 L 2.878906 4.320312 C 2.878906 3.519531 3.519531 2.878906 4.320312 2.878906 Z M 8.820312 7.679688 C 8.734375 7.679688 8.648438 7.761719 8.648438 7.847656 L 8.648438 8.472656 C 8.648438 8.554688 8.734375 8.640625 8.820312 8.640625 L 9.507812 8.640625 L 11.570312 12.488281 L 9.9375 15.417969 L 6.847656 8.640625 L 7.507812 8.640625 C 7.59375 8.640625 7.679688 8.558594 7.679688 8.472656 L 7.679688 7.847656 C 7.679688 7.765625 7.59375 7.679688 7.507812 7.679688 L 4.011719 7.679688 C 3.925781 7.679688 3.839844 7.761719 3.839844 7.847656 L 3.839844 8.472656 C 3.839844 8.554688 3.925781 8.640625 4.011719 8.640625 L 5.042969 8.640625 L 9.507812 17.675781 C 9.550781 17.71875 9.59375 17.761719 9.679688 17.761719 C 9.765625 17.761719 9.808594 17.71875 9.851562 17.675781 L 12.128906 13.578125 L 14.234375 17.675781 C 14.277344 17.71875 14.320312 17.761719 14.40625 17.761719 C 14.492188 17.761719 14.535156 17.71875 14.578125 17.675781 L 19 8.597656 L 19.988281 8.597656 C 20.074219 8.597656 20.160156 8.515625 20.160156 8.429688 L 20.160156 7.847656 C 20.160156 7.765625 20.074219 7.679688 19.988281 7.679688 L 16.972656 7.679688 C 16.886719 7.679688 16.800781 7.761719 16.800781 7.847656 L 16.800781 8.472656 C 16.800781 8.554688 16.886719 8.640625 16.972656 8.640625 L 17.839844 8.640625 L 14.621094 15.417969 L 12.945312 12.070312 L 15.007812 8.640625 L 15.667969 8.640625 C 15.753906 8.640625 15.839844 8.558594 15.839844 8.472656 L 15.839844 7.847656 C 15.839844 7.765625 15.753906 7.679688 15.667969 7.679688 L 13.132812 7.679688 C 13.046875 7.679688 12.960938 7.761719 12.960938 7.847656 L 12.960938 8.472656 C 12.960938 8.554688 13.046875 8.640625 13.132812 8.640625 L 13.804688 8.640625 L 12.386719 10.984375 L 11.226562 8.640625 L 11.828125 8.640625 C 11.914062 8.640625 12 8.558594 12 8.472656 L 12 7.847656 C 12 7.765625 11.914062 7.679688 11.828125 7.679688 Z M 8.820312 7.679688 "/>
</g>
</svg>
